<?xml version="1.0" encoding="utf-8"?>
<!-- Generator: Adobe Illustrator 27.3.1, SVG Export Plug-In . SVG Version: 6.00 Build 0)  -->
<svg version="1.1" id="Layer_1" xmlns:xodm="http://www.corel.com/coreldraw/odm/2003"
	 xmlns="http://www.w3.org/2000/svg" xmlns:xlink="http://www.w3.org/1999/xlink" x="0px" y="0px" viewBox="0 0 2000 2000"
	 style="enable-background:new 0 0 2000 2000;" xml:space="preserve">
<style type="text/css">
	.st0{fill-rule:evenodd;clip-rule:evenodd;}
</style>
<g id="Layer_x0020_1">
	<path class="st0" d="M1028.2,1904.7c-2-2.6-4.1-5.4-6.4-8.3c-37.3-48.4-35.1-83.7-17.2-108.1c16-21.8,43.7-37.5,79-48.6
		c62,91.6,137.9,145.8,220.8,147.6c1.6,0.9,3.2,1.8,4.8,2.7C1207.4,1909.3,1129.9,1913.4,1028.2,1904.7z M966.1,1898.4
		c-28.3-3.3-57.7-7.2-88.3-11.8C402.1,1585.5,431.5,428.7,884.5,99.2c25.6-2.5,51.3-4.4,76.9-5.7c-2,1.4-3.9,2.9-5.8,4.4
		C518.2,432,489.1,1618.4,966.1,1898.4L966.1,1898.4z M801.6,1874.3c-16.4-2.8-33.2-5.8-50.2-9c-118.8-23.3-206.9-62-283.7-142.7
		c40.6,7.9,83.4,22.1,129.3,42.9C653.5,1791.3,717.2,1827,801.6,1874.3L801.6,1874.3z M433.1,1682.5c-1.7-2.2-3.4-4.3-5.1-6.5
		c-32.5-42.6-61-92.1-86-149.2c49.8,5,100.1,19.9,150.6,46.7c52,27.6,105.5,68,166.4,121.4c0.8,0.7,1.6,1.7,2.4,2.4
		c32.3,51.6,74.3,103.5,125.9,155.9c-9.2-5.2-18.7-9.4-27.1-14.9c-74.3-49.4-137.9-86.7-194-113.1
		C519.9,1703.3,475.7,1689.2,433.1,1682.5L433.1,1682.5z M326.5,1489.1c-8.8-22.6-17.1-46.2-24.9-71c-8.2-25.8-15.1-53.1-21.2-81.9
		c50.3,3.4,98.8,17.4,145.4,43.3c47.1,26.2,95.4,65.7,142.9,118.2c0.5,0.6,1.2,1.3,1.8,2c19,51.5,41.5,102.7,65.6,154.2
		c-5.4-4.8-10.9-9.5-16.3-14.6c-52.3-48.7-102.7-84.4-152.2-109.2C420.1,1506.5,373.3,1493.1,326.5,1489.1L326.5,1489.1z
		 M273.1,1299.1c-5.4-29.7-10.1-60.7-14.6-93.1c-2.8-19.7-5-39.4-6.9-59.2c48.9,2.3,95.4,15.2,138.3,39.5
		c44.5,25.2,85.6,63.8,126.4,115.6c0.6,0.7,1.1,1.5,1.5,2c11.2,51.1,20.1,93.6,36.2,144.7C473.7,1362.1,396.2,1306.7,273.1,1299.1
		L273.1,1299.1z M248.7,1109.8c-3.3-50.8-3.8-101.7-1.6-152c47.8,1.2,91.3,13,130.3,35.9c41.4,24.4,79.7,61.5,113.3,112.7
		c0.4,0.6,0.6,1.5,1.1,2.2c4.8,50.9,11.1,102,17.7,152.9c-3.8-5-7.3-9.7-11-14.4c-36.9-47.2-77.6-80.8-120.6-103.5
		C337.6,1122.3,294.3,1111.6,248.7,1109.8z M249.2,920.9c3.6-51.6,9.8-102.4,18.5-151.7c46.2,0.2,87.3,10.6,122.6,32.2
		c38,23.2,70.4,59.9,98.8,110.1c0.4,0.7,0.6,1.3,1.1,2.2c-2,50.9-2.2,101.8-0.2,152.4c-3.3-4.6-6.5-9.1-9.8-13.7
		c-33.1-46.7-68.5-79.8-108.1-101.1C335.1,931.3,293.7,921.7,249.2,920.9L249.2,920.9z M274.7,732.3
		c10.7-52.6,24.2-103.4,40.1-151.5c45.6-1.6,83.6,8,114.4,28.4c34,22.5,61.8,58,82,107.5c0.3,0.7,0.3,1.5,0.8,2.2
		c-8.1,50.9-14.5,101.5-19.9,152.4c-2.7-4.6-5.1-9.3-7.7-13.8c-26-46-57.5-78.2-94.3-98.5C356,740.2,317.5,731.9,274.7,732.3
		L274.7,732.3z M327.7,543.9l0.5-1.4c20.6-56,43.6-105.7,68.5-149.5c0.4,0,0.9-0.1,1.4-0.1c45.7-3.9,82.1,4,108.5,24.5
		c26.9,21,44.2,56,56.1,105.1c0.2,0.7,0.2,1.5,0.4,2c-16.5,50.9-31,101.5-42.2,152c-2.1-4.4-4.3-8.7-6.3-13.3
		c-19.8-45.5-45.2-76.8-76.7-95.9C407.9,549.2,370.7,542,327.7,543.9L327.7,543.9z M555,205c0.4-0.1,0.8-0.1,1.3-0.2
		c41.9-5.3,70.1,1.3,83.2,20.7c12.2,18,17.7,46.5,15.9,86.2c-0.2,5.4-0.6,10.9-1.1,16.7c-0.1,0.8-0.2,1.3-0.1,2
		c-29.9,50.7-53.4,101.4-76.3,152c-1.3-4.4-2.2-8.9-3-13.5c-8.2-44.5-26.7-74.5-52.8-93.3c-23.8-17.1-56.6-23.5-98.8-19.4
		c-1.6,0.2-3.2,0.4-4.5,0.6C452.1,312.1,511.4,238,555,205L555,205z M1128.9,91c62.2,0.7,120.1,3.3,184.3,13.9
		c5.9,1.4,3.2,5.4,0.1,5.3c-13.2,1.5-26.2,4.4-39,8.4c-30.9,9.8-60.8,26.9-89.3,50.3c-43.1-2.5-93.3,2.3-150,18.7
		c-56.2,16.3-115.9,46.8-179.6,90.4c-5.8,4-11.1,8.7-16.5,12.9c72.5-103.2,106-143,194.3-180.1C1063.5,97.6,1095.5,91.6,1128.9,91
		L1128.9,91z M1145.1,207c-37.3,40.4-71.6,92.2-101.7,153c-45.1-2-92.3,4.2-141.3,22c-48.5,17.6-95.9,48-144.8,91.7
		c-4.8,4.3-9.7,8.7-14.2,12.9c20.9-50.9,42.3-102,70.7-153.1c0.7-0.6,1.3-1.1,2.2-1.8c59-47.8,119.3-81.6,177-101.6
		C1047.9,211,1098.2,203.9,1145.1,207L1145.1,207z M1025.8,397.6c-20.5,46.6-38.8,97.7-54.3,152.5c-1.3,0.1-2.4,0-3.5-0.1
		c-46.2-0.4-91.9,7.7-136.7,26.4c-45.1,18.8-89.3,48.6-130.1,92.8c-4,4.3-7.6,8.8-11.4,12.9c10.5-50.9,24.2-101.8,38.9-152.9
		c0.4-0.4,1-1.1,1.6-1.8c47.8-48,97.9-82.1,147-102.9c48.6-20.7,98.1-28.7,147-26.8C1024.8,397.6,1025.3,397.6,1025.8,397.6
		L1025.8,397.6z M961.5,587.2c-12.3,48.4-22.5,99.5-30.4,152.5c-1.2,0.1-2.5,0-3.7,0c-47.2,1.7-92.7,11.1-135.7,30.6
		c-42.9,19.5-82.6,50.2-117.7,94.5c-3.5,4.4-7,8.8-10.3,13.1c4.6-51.1,10.5-102.2,18.4-153.3c0.3-0.5,0.8-1.1,1.4-1.8
		c40.1-48.4,83.9-82.8,130.2-104.2c46.8-21.6,95-31.2,144.5-31.2C959.2,587.3,960.3,587.3,961.5,587.2L961.5,587.2z M925.9,776.9
		c-6.2,49.4-10.5,100.4-12.5,152.6c-1.6,0.3-3.2,0.1-4.7,0.3c-47.3,3.3-91.9,13.9-133.2,34.7c-39.7,20-75.6,51.5-105.4,96.1
		c-3,4.4-5.8,8.8-8.7,13.1c-1.5-51.1-2-102.2,0-153.3c0.4-0.7,0.8-1.3,1.3-2c34.2-48.5,73.7-83.5,116.4-105.5
		c44.4-22.8,91.8-33.5,142.1-35.6C922.8,777.3,924.3,777.2,925.9,776.9L925.9,776.9z M912.1,991.6c-0.2,33.7,0.6,67,2.3,99.6
		c0.2,9.5,0.5,19,0.7,28.4c-1.7,0.5-3.5,0.5-5,0.7c-46.8,5-89.3,17.2-127.2,38.7c-37.3,21.2-69.5,52.6-95.1,97.6
		c-2.6,4.6-5.2,9-7.3,13.3c-6.4-51.3-12.4-102.6-17.4-153.7c0.2-0.6,0.6-1.1,1-1.7c29.7-49.1,65.1-84.4,105.8-107.5
		c40.9-23.3,86.3-35.7,136.1-39.7c1.7-0.1,3.6-0.4,5.5-0.7L912.1,991.6L912.1,991.6z M919,1157c2.5,27.4,5.6,54.3,9.3,80.6
		c2.4,24.8,5.3,49.2,8.7,73.2c-0.6,0.1-1.1,0.1-1.7,0.2c-46.5,7.2-87.7,21-123.1,43.4c-34.8,21.9-63.9,53.8-80.5,99.4
		c-1.7,4.6-3.2,8.8-4.8,13.3c-16.1-51.5-27.2-102.7-38.1-154.4c0.3-0.4,0.5-1,0.8-1.7c21.6-49.3,53.8-85.1,91.7-109
		c38.4-24.2,82.6-38.2,132.2-44.1C915.3,1157.6,917.1,1157.5,919,1157L919,1157z M942.9,1348.7c9.2,54.8,21,106.9,35.3,155.4
		c-42.7,9-80.1,23.2-110.3,45.9c-29.6,22.3-49.9,55.5-59.3,101.5c-1,4.8-1.5,9.2-2.3,13.5c-24-51.7-46.9-103.3-65.8-154.9
		c0.2-0.6,0.3-1.1,0.5-1.8c15.1-50,39.4-86.2,74.1-110.8c35.6-25.3,78.4-40.5,127.4-48.5L942.9,1348.7L942.9,1348.7z M990,1542
		c19.6,59.2,43,112.5,69.3,158.5c-35.7,10.6-64.5,25.8-85.8,46.6c-22.5,21.9-29.8,52.5-19.1,93.7c1.3,5.2,3,10.2,4.2,15.3
		c-52-49.5-94.1-98.8-125.6-148c0-0.6-0.1-1.1-0.1-1.8c0.7-50.5,19.7-87.1,48.5-112.9C909.2,1568.7,945.5,1552.2,990,1542z
		 M1366.1,151.8c224,0,397.6,381.8,387.7,852.8s-199.6,852.8-423.6,852.8s-397.6-381.8-387.7-852.8
		C952.4,533.6,1142,151.8,1366.1,151.8z M1366.4,279.5c173.5,0,307.9,324.3,300.2,724.3c-7.7,400-154.6,724.3-328,724.3
		c-173.5,0-307.9-324.3-300.2-724.3C1046,603.8,1192.9,279.5,1366.4,279.5L1366.4,279.5z M849,103.2
		c-62.7,55.2-122.8,112.4-167.6,184.9c0.1-4.4-0.4-8.9,0.4-13.3c8.1-44,6.5-73.2-7.2-90.9c-10.6-13.7-28.5-19.4-56.7-17.8
		C685.1,132.8,765.6,113.8,849,103.2L849,103.2z M1319.4,1641.6c-14.6-4.1-28.4-19.4-39.1-41.3c-4.8-10-5.8-28.2-3-44.7
		c14.8-85.7,35.6-168.7,54.6-254.7c5-22.6,8.6-47.2,15.1-61.5c5.3-11.5,12.5-16.4,19.3-13.3c8.5,3.9,16.3,20.7,25,33.8
		c33.2,50.1,67.3,95.2,96.8,150.4c5.7,10.6,8.4,27.6,6.1,42.6c-5,32.6-14,63.6-25.8,85.9C1426.1,1618.8,1371.5,1656.4,1319.4,1641.6
		L1319.4,1641.6z M1092.6,1035.6c2.2-15.1,8.6-23,15.6-21.2c36.2,9.7,73.4,35,111,54.8c9.9,5.2,20.1,6.3,27.4,18
		c5.9,9.3,9.9,25.4,10.9,43.1c1.2,21.8-2.6,46.3-4.7,71.6c-8.3,96.4-14.4,194.1-25.7,283.2c-2.2,17.2-7.7,29.1-13.9,28.1
		c-13.6-2.2-27.8-14.6-39.7-36.6c-42.5-78.5-73.3-200.1-83.9-331.9C1086.4,1110.2,1087.8,1068.6,1092.6,1035.6L1092.6,1035.6z
		 M1199.3,453.2c12.7-18.6,27.4-27.1,41-25.6c6.3,0.7,11.2,13.9,12.7,31.7c7.6,91.6,9.7,190.3,14.1,288.5
		c1.1,25.8,3.9,51.1,1.8,72.5c-1.6,17.3-6.3,32.2-12.6,39.9c-7.7,9.7-17.9,8-28,10.5c-38.2,9.5-76.2,24.8-112.7,24.6
		c-7,0-13.1-9.7-14.7-25.2c-3.4-34-3.2-72.7,1.2-108.6C1118.2,633.1,1153.7,520,1199.3,453.2L1199.3,453.2z M1341.3,355.3
		c-14.7,0.2-29,11.8-40.5,30.5c-5.2,8.6-7,26.5-4.8,43.7c11.2,89.1,28.6,177.3,43.9,267.9c4,23.8,6.6,49.2,12.5,65.2
		c4.8,12.9,11.7,19.8,18.7,18.4c8.6-1.6,17.1-16.1,26.3-26.9c35-40.9,70.8-76.5,102.4-123.5c6.1-9.1,9.5-25.2,7.8-40.7
		c-3.6-33.9-11.3-67.1-22.2-92.5C1446.6,406.7,1393.7,354.6,1341.3,355.3L1341.3,355.3z M1570.7,812.1
		c-4.6-35.7-13.2-67.4-23.8-89.6c-4.8-10.2-11.9-8.9-17.6,1.6c-29.5,55-56.8,124.7-85.5,190.3c-7.6,17.2-16.2,31.3-20.2,50.8
		c-3.3,15.6-3.7,34.7-1,51.3c3.2,20.4,11.2,36.8,18,55.9c25.9,72.8,50.2,149.6,77.3,212.2c5.2,12,12.2,15.4,17.5,6.4
		c11.3-19.4,21.3-48.4,27.3-82.8C1584.4,1085.4,1587.2,940.1,1570.7,812.1L1570.7,812.1z M1325,926.9c16.3-11.2,33.1,13.7,37.4,55.5
		c4.4,41.9-5.3,85-21.6,96.2c-16.3,11.2-33.1-13.7-37.4-55.6C1299,981.3,1308.7,938.1,1325,926.9L1325,926.9z M1309.7,780.2
		c6.8-4.7,14.1,2.6,17.9,17.8c4.8,19.5,2.7,45.7-5,58c-11,18.5-25.7-3.5-25.1-37.3C1298.1,800.5,1302.8,785,1309.7,780.2z
		 M1380.3,862.7c10.5-7.2,21,14,20.5,42.4c-0.3,22.9-8.1,41-17,40c-8.9-1.2-16-20.5-15.6-43.8C1368.6,883,1373.4,867.4,1380.3,862.7
		L1380.3,862.7z M1383.3,1066.7c6.9-4.7,14,2.6,17.9,17.8c4.8,19.6,2.6,45.5-4.9,57.9c-2.8,4.6-6.1,7-9.6,6.6
		c-8.9-1.3-15.9-20.6-15.6-43.8C1371.7,1086.9,1376.4,1071.4,1383.3,1066.7L1383.3,1066.7z M1301.6,1123c6.9-4.7,14.1,2.6,18,17.8
		c4.8,19.6,2.6,45.5-4.9,57.9c-7.7,12.8-17.6,6.6-22.5-12.7c-1.8-7.1-2.7-15.6-2.6-24.5C1290.1,1143.2,1294.7,1127.8,1301.6,1123z
		 M1264.6,942.4c6.8-4.7,14.1,2.6,17.9,17.8c4.8,19.6,2.6,45.5-4.9,58c-7.7,12.8-17.6,6.3-22.6-12.7c-1.8-7.2-2.7-15.6-2.6-24.5
		C1253,962.6,1257.6,947.2,1264.6,942.4L1264.6,942.4z"/>
</g>
</svg>
