<svg width="1510" height="1819" viewBox="0 0 1510 1819" fill="none" xmlns="http://www.w3.org/2000/svg">
<path fill-rule="evenodd" clip-rule="evenodd" d="M783.2 1813.7C781.2 1811.1 779.1 1808.3 776.8 1805.4C739.5 1757 741.7 1721.7 759.6 1697.3C775.6 1675.5 803.3 1659.8 838.6 1648.7C900.6 1740.3 976.5 1794.5 1059.4 1796.3C1061 1797.2 1062.6 1798.1 1064.2 1799C962.4 1818.3 884.9 1822.4 783.2 1813.7ZM721.1 1807.4C692.8 1804.1 663.4 1800.2 632.8 1795.6C157.1 1494.5 186.5 337.7 639.5 8.2C665.1 5.7 690.8 3.8 716.4 2.5C714.4 3.9 712.5 5.4 710.6 6.9C273.2 341 244.1 1527.4 721.1 1807.4ZM556.6 1783.3C540.2 1780.5 523.4 1777.5 506.4 1774.3C387.6 1751 299.5 1712.3 222.7 1631.6C263.3 1639.5 306.1 1653.7 352 1674.5C408.5 1700.3 472.2 1736 556.6 1783.3ZM188.1 1591.5C186.4 1589.3 184.7 1587.2 183 1585C150.5 1542.4 122 1492.9 97 1435.8C146.8 1440.8 197.1 1455.7 247.6 1482.5C299.6 1510.1 353.1 1550.5 414 1603.9C414.8 1604.6 415.6 1605.6 416.4 1606.3C448.7 1657.9 490.7 1709.8 542.3 1762.2C533.1 1757 523.6 1752.8 515.2 1747.3C440.9 1697.9 377.3 1660.6 321.2 1634.2C274.9 1612.3 230.7 1598.2 188.1 1591.5ZM81.5 1398.1C72.7 1375.5 64.4 1351.9 56.6 1327.1C48.4 1301.3 41.5 1274 35.4 1245.2C85.7 1248.6 134.2 1262.6 180.8 1288.5C227.9 1314.7 276.2 1354.2 323.7 1406.7C324.2 1407.3 324.9 1408 325.5 1408.7C344.5 1460.2 367 1511.4 391.1 1562.9C385.7 1558.1 380.2 1553.4 374.8 1548.3C322.5 1499.6 272.1 1463.9 222.6 1439.1C175.1 1415.5 128.3 1402.1 81.5 1398.1ZM28.1 1208.1C22.7 1178.4 18 1147.4 13.5 1115C10.7 1095.3 8.49997 1075.6 6.59997 1055.8C55.5 1058.1 102 1071 144.9 1095.3C189.4 1120.5 230.5 1159.1 271.3 1210.9C271.9 1211.6 272.4 1212.4 272.8 1212.9C284 1264 292.9 1306.5 309 1357.6C228.7 1271.1 151.2 1215.7 28.1 1208.1ZM3.69996 1018.8C0.399959 968 -0.100032 917.1 2.09997 866.8C49.9 868 93.4 879.8 132.4 902.7C173.8 927.1 212.1 964.2 245.7 1015.4C246.1 1016 246.3 1016.9 246.8 1017.6C251.6 1068.5 257.9 1119.6 264.5 1170.5C260.7 1165.5 257.2 1160.8 253.5 1156.1C216.6 1108.9 175.9 1075.3 132.9 1052.6C92.6 1031.3 49.3 1020.6 3.69996 1018.8ZM4.19996 829.9C7.79996 778.3 14 727.5 22.7 678.2C68.9 678.4 110 688.8 145.3 710.4C183.3 733.6 215.7 770.3 244.1 820.5C244.5 821.2 244.7 821.8 245.2 822.7C243.2 873.6 243 924.5 245 975.1C241.7 970.5 238.5 966 235.2 961.4C202.1 914.7 166.7 881.6 127.1 860.3C90.1 840.3 48.7 830.7 4.19996 829.9ZM29.7 641.3C40.4 588.7 53.8999 537.9 69.7999 489.8C115.4 488.2 153.4 497.8 184.2 518.2C218.2 540.7 246 576.2 266.2 625.7C266.5 626.4 266.5 627.2 267 627.9C258.9 678.8 252.5 729.4 247.1 780.3C244.4 775.7 242 771 239.4 766.5C213.4 720.5 181.9 688.3 145.1 668C111 649.2 72.5 640.9 29.7 641.3ZM82.7 452.9L83.2 451.5C103.8 395.5 126.8 345.8 151.7 302C152.1 302 152.6 301.9 153.1 301.9C198.8 298 235.2 305.9 261.6 326.4C288.5 347.4 305.8 382.4 317.7 431.5C317.9 432.2 317.9 433 318.1 433.5C301.6 484.4 287.1 535 275.9 585.5C273.8 581.1 271.6 576.8 269.6 572.2C249.8 526.7 224.4 495.4 192.9 476.3C162.9 458.2 125.7 451 82.7 452.9ZM310 114C310.4 113.9 310.8 113.9 311.3 113.8C353.2 108.5 381.4 115.1 394.5 134.5C406.7 152.5 412.2 181 410.4 220.7C410.2 226.1 409.8 231.6 409.3 237.4C409.2 238.2 409.1 238.7 409.2 239.4C379.3 290.1 355.8 340.8 332.9 391.4C331.6 387 330.7 382.5 329.9 377.9C321.7 333.4 303.2 303.4 277.1 284.6C253.3 267.5 220.5 261.1 178.3 265.2C176.7 265.4 175.1 265.6 173.8 265.8C207.1 221.1 266.4 147 310 114ZM883.9 0C946.1 0.7 1004 3.3 1068.2 13.9C1074.1 15.3 1071.4 19.3 1068.3 19.2C1055.1 20.7 1042.1 23.6 1029.3 27.6C998.4 37.4 968.5 54.5 940 77.9C896.9 75.4 846.7 80.2 790 96.6C733.8 112.9 674.1 143.4 610.4 187C604.6 191 599.3 195.7 593.9 199.9C666.4 96.7 699.9 56.9 788.2 19.8C818.5 6.6 850.5 0.6 883.9 0ZM900.1 116C862.8 156.4 828.5 208.2 798.4 269C753.3 267 706.1 273.2 657.1 291C608.6 308.6 561.2 339 512.3 382.7C507.5 387 502.6 391.4 498.1 395.6C519 344.7 540.4 293.6 568.8 242.5C569.5 241.9 570.1 241.4 571 240.7C630 192.9 690.3 159.1 748 139.1C802.9 120 853.2 112.9 900.1 116ZM780.8 306.6C760.3 353.2 742 404.3 726.5 459.1C725.2 459.2 724.1 459.1 723 459C676.8 458.6 631.1 466.7 586.3 485.4C541.2 504.2 497 534 456.2 578.2C452.2 582.5 448.6 587 444.8 591.1C455.3 540.2 469 489.3 483.7 438.2C484.1 437.8 484.7 437.1 485.3 436.4C533.1 388.4 583.2 354.3 632.3 333.5C680.9 312.8 730.4 304.8 779.3 306.7C779.8 306.6 780.3 306.6 780.8 306.6ZM716.5 496.2C704.2 544.6 694 595.7 686.1 648.7C684.9 648.8 683.6 648.7 682.4 648.7C635.2 650.4 589.7 659.8 546.7 679.3C503.8 698.8 464.1 729.5 429 773.8C425.5 778.2 422 782.6 418.7 786.9C423.3 735.8 429.2 684.7 437.1 633.6C437.4 633.1 437.9 632.5 438.5 631.8C478.6 583.4 522.4 549 568.7 527.6C615.5 506 663.7 496.4 713.2 496.4C714.2 496.3 715.3 496.3 716.5 496.2ZM680.9 685.9C674.7 735.3 670.4 786.3 668.4 838.5C666.8 838.8 665.2 838.6 663.7 838.8C616.4 842.1 571.8 852.7 530.5 873.5C490.8 893.5 454.9 925 425.1 969.6C422.1 974 419.3 978.4 416.4 982.7C414.9 931.6 414.4 880.5 416.4 829.4C416.8 828.7 417.2 828.1 417.7 827.4C451.9 778.9 491.4 743.9 534.1 721.9C578.5 699.1 625.9 688.4 676.2 686.3C677.8 686.3 679.3 686.2 680.9 685.9ZM667.1 900.6C666.9 934.3 667.7 967.6 669.4 1000.2C669.6 1009.7 669.9 1019.2 670.1 1028.6C668.4 1029.1 666.6 1029.1 665.1 1029.3C618.3 1034.3 575.8 1046.5 537.9 1068C500.6 1089.2 468.4 1120.6 442.8 1165.6C440.2 1170.2 437.6 1174.6 435.5 1178.9C429.1 1127.6 423.1 1076.3 418.1 1025.2C418.3 1024.6 418.7 1024.1 419.1 1023.5C448.8 974.4 484.2 939.1 524.9 916C565.8 892.7 611.2 880.3 661 876.3C662.7 876.2 664.6 875.9 666.5 875.6L667.1 900.6ZM674 1066C676.5 1093.4 679.6 1120.3 683.3 1146.6C685.7 1171.4 688.6 1195.8 692 1219.8C691.4 1219.9 690.9 1219.9 690.3 1220C643.8 1227.2 602.6 1241 567.2 1263.4C532.4 1285.3 503.3 1317.2 486.7 1362.8C485 1367.4 483.5 1371.6 481.9 1376.1C465.8 1324.6 454.7 1273.4 443.8 1221.7C444.1 1221.3 444.3 1220.7 444.6 1220C466.2 1170.7 498.4 1134.9 536.3 1111C574.7 1086.8 618.9 1072.8 668.5 1066.9C670.3 1066.6 672.1 1066.5 674 1066ZM697.9 1257.7C707.1 1312.5 718.9 1364.6 733.2 1413.1C690.5 1422.1 653.1 1436.3 622.9 1459C593.3 1481.3 573 1514.5 563.6 1560.5C562.6 1565.3 562.1 1569.7 561.3 1574C537.3 1522.3 514.4 1470.7 495.5 1419.1C495.7 1418.5 495.8 1418 496 1417.3C511.1 1367.3 535.4 1331.1 570.1 1306.5C605.7 1281.2 648.5 1266 697.5 1258L697.9 1257.7ZM745 1451C764.6 1510.2 788 1563.5 814.3 1609.5C778.6 1620.1 749.8 1635.3 728.5 1656.1C706 1678 698.7 1708.6 709.4 1749.8C710.7 1755 712.4 1760 713.6 1765.1C661.6 1715.6 619.5 1666.3 588 1617.1C588 1616.5 587.9 1616 587.9 1615.3C588.6 1564.8 607.6 1528.2 636.4 1502.4C664.2 1477.7 700.5 1461.2 745 1451ZM1121.1 60.8C1345.1 60.8 1518.7 442.6 1508.8 913.6C1498.9 1384.6 1309.2 1766.4 1085.2 1766.4C861.2 1766.4 687.6 1384.6 697.5 913.6C707.4 442.6 897 60.8 1121.1 60.8ZM1121.4 188.5C1294.9 188.5 1429.3 512.8 1421.6 912.8C1413.9 1312.8 1267 1637.1 1093.6 1637.1C920.1 1637.1 785.7 1312.8 793.4 912.8C801 512.8 947.9 188.5 1121.4 188.5ZM604 12.2C541.3 67.4 481.2 124.6 436.4 197.1C436.5 192.7 436 188.2 436.8 183.8C444.9 139.8 443.3 110.6 429.6 92.9C419 79.2 401.1 73.5 372.9 75.1C440.1 41.8 520.6 22.8 604 12.2ZM1074.4 1550.6C1059.8 1546.5 1046 1531.2 1035.3 1509.3C1030.5 1499.3 1029.5 1481.1 1032.3 1464.6C1047.1 1378.9 1067.9 1295.9 1086.9 1209.9C1091.9 1187.3 1095.5 1162.7 1102 1148.4C1107.3 1136.9 1114.5 1132 1121.3 1135.1C1129.8 1139 1137.6 1155.8 1146.3 1168.9C1179.5 1219 1213.6 1264.1 1243.1 1319.3C1248.8 1329.9 1251.5 1346.9 1249.2 1361.9C1244.2 1394.5 1235.2 1425.5 1223.4 1447.8C1181.1 1527.8 1126.5 1565.4 1074.4 1550.6ZM847.6 944.6C849.8 929.5 856.2 921.6 863.2 923.4C899.4 933.1 936.6 958.4 974.2 978.2C984.1 983.4 994.3 984.5 1001.6 996.2C1007.5 1005.5 1011.5 1021.6 1012.5 1039.3C1013.7 1061.1 1009.9 1085.6 1007.8 1110.9C999.5 1207.3 993.4 1305 982.1 1394.1C979.9 1411.3 974.4 1423.2 968.2 1422.2C954.6 1420 940.4 1407.6 928.5 1385.6C886 1307.1 855.2 1185.5 844.6 1053.7C841.4 1019.2 842.8 977.6 847.6 944.6ZM954.3 362.2C967 343.6 981.7 335.1 995.3 336.6C1001.6 337.3 1006.5 350.5 1008 368.3C1015.6 459.9 1017.7 558.6 1022.1 656.8C1023.2 682.6 1026 707.9 1023.9 729.3C1022.3 746.6 1017.6 761.5 1011.3 769.2C1003.6 778.9 993.4 777.2 983.3 779.7C945.1 789.2 907.1 804.5 870.6 804.3C863.6 804.3 857.5 794.6 855.9 779.1C852.5 745.1 852.7 706.4 857.1 670.5C873.2 542.1 908.7 429 954.3 362.2ZM1096.3 264.3C1081.6 264.5 1067.3 276.1 1055.8 294.8C1050.6 303.4 1048.8 321.3 1051 338.5C1062.2 427.6 1079.6 515.8 1094.9 606.4C1098.9 630.2 1101.5 655.6 1107.4 671.6C1112.2 684.5 1119.1 691.4 1126.1 690C1134.7 688.4 1143.2 673.9 1152.4 663.1C1187.4 622.2 1223.2 586.6 1254.8 539.6C1260.9 530.5 1264.3 514.4 1262.6 498.9C1259 465 1251.3 431.8 1240.4 406.4C1201.6 315.7 1148.7 263.6 1096.3 264.3ZM1325.7 721.1C1321.1 685.4 1312.5 653.7 1301.9 631.5C1297.1 621.3 1290 622.6 1284.3 633.1C1254.8 688.1 1227.5 757.8 1198.8 823.4C1191.2 840.6 1182.6 854.7 1178.6 874.2C1175.3 889.8 1174.9 908.9 1177.6 925.5C1180.8 945.9 1188.8 962.3 1195.6 981.4C1221.5 1054.2 1245.8 1131 1272.9 1193.6C1278.1 1205.6 1285.1 1209 1290.4 1200C1301.7 1180.6 1311.7 1151.6 1317.7 1117.2C1339.4 994.4 1342.2 849.1 1325.7 721.1ZM1080 835.9C1096.3 824.7 1113.1 849.6 1117.4 891.4C1121.8 933.3 1112.1 976.4 1095.8 987.6C1079.5 998.8 1062.7 973.9 1058.4 932C1054 890.3 1063.7 847.1 1080 835.9ZM1064.7 689.2C1071.5 684.5 1078.8 691.8 1082.6 707C1087.4 726.5 1085.3 752.7 1077.6 765C1066.6 783.5 1051.9 761.5 1052.5 727.7C1053.1 709.5 1057.8 694 1064.7 689.2ZM1135.3 771.7C1145.8 764.5 1156.3 785.7 1155.8 814.1C1155.5 837 1147.7 855.1 1138.8 854.1C1129.9 852.9 1122.8 833.6 1123.2 810.3C1123.6 792 1128.4 776.4 1135.3 771.7ZM1138.3 975.7C1145.2 971 1152.3 978.3 1156.2 993.5C1161 1013.1 1158.8 1039 1151.3 1051.4C1148.5 1056 1145.2 1058.4 1141.7 1058C1132.8 1056.7 1125.8 1037.4 1126.1 1014.2C1126.7 995.9 1131.4 980.4 1138.3 975.7ZM1056.6 1032C1063.5 1027.3 1070.7 1034.6 1074.6 1049.8C1079.4 1069.4 1077.2 1095.3 1069.7 1107.7C1062 1120.5 1052.1 1114.3 1047.2 1095C1045.4 1087.9 1044.5 1079.4 1044.6 1070.5C1045.1 1052.2 1049.7 1036.8 1056.6 1032ZM1019.6 851.4C1026.4 846.7 1033.7 854 1037.5 869.2C1042.3 888.8 1040.1 914.7 1032.6 927.2C1024.9 940 1015 933.5 1010 914.5C1008.2 907.3 1007.3 898.9 1007.4 890C1008 871.6 1012.6 856.2 1019.6 851.4Z" fill="black"/>
</svg>
